<svg width="260" height="200" viewBox="0 0 260 200" fill="none" xmlns="http://www.w3.org/2000/svg">
<path d="M171.07 53.0508L168.68 26.1199C168.293 20.823 163.208 17.1773 157.875 17.773L156.727 9.04297C156.044 3.88711 151.61 0 146.414 0H53.5859C48.3859 0 43.9543 3.88867 43.2773 9.04414L42.1258 17.7727C36.9258 17.1492 31.7863 20.6863 31.3191 26.1184L28.9297 53.0508C28.5859 56.927 33.3352 56.2836 35.7484 56.2836L50.4769 191.309C51.0195 196.264 55.1867 200 60.1703 200H107.993C109.633 200 110.963 198.67 110.963 197.03C110.963 195.389 109.634 194.059 107.993 194.059H60.1703C58.2227 194.059 56.5941 192.599 56.3824 190.664L53.925 168.137H146.074L143.617 190.663C143.405 192.599 141.779 194.059 139.833 194.059H123.375C121.735 194.059 120.405 195.389 120.405 197.03C120.405 198.67 121.734 200 123.375 200H139.834C144.815 200 148.981 196.264 149.523 191.309L164.252 56.284C166.664 56.2836 171.414 56.927 171.07 53.0508V53.0508ZM146.722 162.196H53.2789L44.6074 82.7105H155.393L146.722 162.196ZM156.041 76.7703H43.959L41.7242 56.284H158.275L156.041 76.7703ZM35.134 50.343L37.2367 26.6426C37.3844 24.9727 38.7598 23.7133 40.4367 23.7133H63.4773C65.1176 23.7133 66.4477 22.3836 66.4477 20.743C66.4477 19.1023 65.118 17.7727 63.4773 17.7727H48.118L49.1672 9.81914C49.4578 7.60781 51.3574 5.94023 53.5863 5.94023H146.414C148.643 5.94023 150.545 7.60898 150.838 9.81953L151.884 17.7727H79.3379C77.6977 17.7727 76.3676 19.1023 76.3676 20.743C76.3676 22.3836 77.6973 23.7133 79.3379 23.7133H159.568C161.242 23.7133 162.615 24.9727 162.763 26.6438L164.866 50.343H35.134Z" fill="black"/>
<path d="M119.329 101.691C115.025 97.6836 109.418 95.5875 103.539 95.8027C97.6621 96.0129 92.2184 98.4992 88.2109 102.804L79.5582 112.098C75.5508 116.403 73.4594 122.011 73.6695 127.888C73.8797 133.764 76.3648 139.206 80.6668 143.213C80.668 143.214 80.6691 143.215 80.6703 143.216C80.6715 143.218 80.673 143.219 80.6746 143.22C84.9086 147.16 90.293 149.109 95.666 149.109C101.569 149.109 107.459 146.755 111.789 142.104L120.441 132.809C128.714 123.923 128.216 109.963 119.329 101.691V101.691ZM116.094 128.762L107.441 138.056C102.092 143.802 93.4891 144.741 87.0832 140.687L100.327 126.462C101.445 125.262 101.377 123.382 100.177 122.264C98.9762 121.147 97.0965 121.214 95.9789 122.414L82.7328 136.643C80.8184 134.057 79.7242 130.961 79.6066 127.676C79.4531 123.384 80.9801 119.29 83.9063 116.146L92.559 106.852C95.4852 103.709 99.4602 101.893 103.752 101.74C103.949 101.733 104.145 101.729 104.341 101.729C107.414 101.729 110.368 102.593 112.921 104.216L105.555 112.128C104.438 113.329 104.505 115.208 105.705 116.326C106.684 117.162 108.364 117.573 109.903 116.176L117.265 108.268C121.766 114.368 121.443 123.016 116.094 128.762V128.762Z" fill="black"/>
<path d="M193.104 172.576C189.744 172.576 186.792 171.928 184.248 170.632C181.704 169.288 179.712 167.416 178.272 165.016C176.88 162.616 176.184 159.856 176.184 156.736V136.864C176.184 133.744 176.88 130.984 178.272 128.584C179.712 126.184 181.704 124.336 184.248 123.04C186.792 121.696 189.744 121.024 193.104 121.024C196.416 121.024 199.344 121.672 201.888 122.968C204.48 124.264 206.472 126.088 207.864 128.44C209.256 130.744 209.952 133.36 209.952 136.288V137.224C209.952 137.704 209.712 137.944 209.232 137.944H205.56C205.08 137.944 204.84 137.704 204.84 137.224V136.36C204.84 133.144 203.76 130.528 201.6 128.512C199.488 126.496 196.656 125.488 193.104 125.488C189.552 125.488 186.696 126.52 184.536 128.584C182.376 130.648 181.296 133.36 181.296 136.72V156.88C181.296 160.24 182.4 162.952 184.608 165.016C186.816 167.08 189.72 168.112 193.32 168.112C196.824 168.112 199.608 167.152 201.672 165.232C203.784 163.312 204.84 160.744 204.84 157.528V150.976C204.84 150.784 204.744 150.688 204.552 150.688H193.968C193.488 150.688 193.248 150.448 193.248 149.968V146.944C193.248 146.464 193.488 146.224 193.968 146.224H209.232C209.712 146.224 209.952 146.464 209.952 146.944V156.232C209.952 161.368 208.416 165.376 205.344 168.256C202.32 171.136 198.24 172.576 193.104 172.576ZM237.26 172.576C233.9 172.576 230.948 171.928 228.404 170.632C225.86 169.288 223.868 167.416 222.428 165.016C221.036 162.616 220.34 159.856 220.34 156.736V136.864C220.34 133.744 221.036 130.984 222.428 128.584C223.868 126.184 225.86 124.336 228.404 123.04C230.948 121.696 233.9 121.024 237.26 121.024C240.572 121.024 243.5 121.672 246.044 122.968C248.636 124.264 250.628 126.088 252.02 128.44C253.412 130.744 254.108 133.36 254.108 136.288V137.224C254.108 137.704 253.868 137.944 253.388 137.944H249.716C249.236 137.944 248.996 137.704 248.996 137.224V136.36C248.996 133.144 247.916 130.528 245.756 128.512C243.644 126.496 240.812 125.488 237.26 125.488C233.708 125.488 230.852 126.52 228.692 128.584C226.532 130.648 225.452 133.36 225.452 136.72V156.88C225.452 160.24 226.556 162.952 228.764 165.016C230.972 167.08 233.876 168.112 237.476 168.112C240.98 168.112 243.764 167.152 245.828 165.232C247.94 163.312 248.996 160.744 248.996 157.528V150.976C248.996 150.784 248.9 150.688 248.708 150.688H238.124C237.644 150.688 237.404 150.448 237.404 149.968V146.944C237.404 146.464 237.644 146.224 238.124 146.224H253.388C253.868 146.224 254.108 146.464 254.108 146.944V156.232C254.108 161.368 252.572 165.376 249.5 168.256C246.476 171.136 242.396 172.576 237.26 172.576Z" fill="black"/>
</svg>
