<?xml version="1.0" standalone="no"?>
<!DOCTYPE svg PUBLIC "-//W3C//DTD SVG 20010904//EN"
 "http://www.w3.org/TR/2001/REC-SVG-20010904/DTD/svg10.dtd">
<svg version="1.0" xmlns="http://www.w3.org/2000/svg"
 width="1040.000000pt" height="1040.000000pt" viewBox="0 0 1040.000000 1040.000000"
 preserveAspectRatio="xMidYMid meet">
<metadata>
Created by potrace 1.14, written by Peter Selinger 2001-2017
</metadata>
<g transform="translate(0.000000,1040.000000) scale(0.100000,-0.100000)"
fill="#000000" stroke="none">
<path d="M2008 9176 c-37 -13 -74 -31 -83 -40 -9 -9 -20 -16 -25 -16 -12 0
-76 -69 -107 -115 -27 -39 -53 -106 -58 -145 -3 -30 -13 -101 -22 -155 -3 -22
-7 -51 -8 -65 -8 -72 -18 -136 -22 -142 -2 -5 -28 -8 -56 -8 -95 0 -198 -44
-271 -114 -32 -32 -84 -116 -90 -148 -16 -77 -18 -105 -41 -381 -3 -42 -8 -98
-11 -125 -5 -45 -10 -103 -18 -207 -6 -77 -16 -186 -21 -230 -3 -22 -8 -76
-11 -120 -3 -44 -7 -89 -8 -100 -5 -47 48 -104 104 -112 14 -2 58 -4 98 -4 45
-1 72 -6 73 -13 2 -31 14 -132 23 -208 2 -18 7 -64 11 -103 4 -38 8 -81 10
-95 3 -14 7 -56 10 -95 3 -38 8 -77 10 -85 2 -8 7 -49 10 -90 4 -41 9 -88 11
-105 5 -41 17 -148 28 -260 4 -33 9 -80 12 -105 3 -25 8 -67 10 -95 3 -27 7
-66 9 -85 4 -32 7 -59 19 -170 14 -130 18 -168 22 -190 2 -14 6 -57 9 -97 3
-39 8 -81 10 -94 3 -13 7 -53 11 -89 3 -36 8 -78 10 -95 2 -16 6 -55 9 -85 3
-30 8 -75 11 -100 3 -25 7 -63 9 -85 2 -22 7 -60 10 -85 6 -45 13 -110 20
-185 2 -22 6 -65 10 -95 4 -30 9 -71 10 -90 2 -19 6 -62 10 -95 4 -33 9 -76
10 -95 2 -19 6 -53 9 -75 3 -22 7 -67 11 -100 3 -33 7 -76 10 -95 6 -40 13
-109 20 -195 3 -33 7 -69 10 -81 2 -11 7 -52 10 -90 4 -38 8 -80 11 -94 3 -14
7 -52 9 -85 3 -33 7 -73 9 -88 2 -15 7 -60 11 -100 4 -40 9 -85 11 -102 2 -16
6 -55 9 -85 3 -30 8 -68 10 -85 7 -53 16 -138 30 -280 2 -22 6 -60 10 -85 6
-43 11 -95 20 -190 2 -25 6 -63 9 -85 3 -22 8 -65 11 -95 3 -30 8 -71 10 -90
2 -19 7 -62 10 -96 3 -33 7 -71 10 -85 2 -13 6 -55 10 -93 4 -38 10 -78 15
-90 4 -11 9 -25 10 -31 1 -5 6 -19 10 -30 4 -11 7 -22 6 -25 -1 -6 5 -14 69
-86 32 -36 66 -61 117 -85 l73 -34 1021 -3 1020 -2 39 33 c32 27 39 41 41 73
2 46 -17 88 -50 109 -23 15 -70 29 -91 26 -17 -2 -119 -3 -145 -2 -14 1 -50 1
-80 0 -30 0 -66 0 -80 0 -14 1 -94 0 -178 -1 -83 -2 -152 1 -152 6 0 5 -6 4
-13 -1 -15 -10 -97 -10 -114 0 -7 5 -13 5 -13 0 0 -10 -91 -10 -108 1 -7 4
-12 4 -12 -1 0 -10 -91 -10 -108 1 -7 4 -12 4 -12 -1 0 -10 -91 -10 -108 1 -7
4 -12 4 -12 -1 0 -10 -91 -10 -108 1 -7 4 -12 4 -12 -1 0 -10 -91 -10 -108 1
-7 4 -12 4 -12 -1 0 -10 -91 -10 -108 1 -7 4 -12 4 -12 -1 0 -10 -91 -10 -108
1 -7 4 -12 4 -12 -1 0 -10 -91 -10 -108 1 -7 4 -12 4 -12 -1 0 -10 -91 -10
-108 1 -7 4 -12 3 -12 -2 0 -11 -46 -7 -86 8 -59 23 -91 68 -100 140 -2 19 -6
58 -10 85 -3 28 -7 68 -9 90 -5 51 -15 141 -20 180 -4 31 -14 124 -20 185 -2
19 -6 58 -9 85 -3 28 -8 70 -11 95 -3 25 -8 72 -10 105 l-5 60 1837 0 1838 -1
-1 -49 c-1 -28 -4 -77 -8 -110 -4 -33 -9 -76 -11 -95 -2 -19 -6 -55 -9 -80 -3
-25 -8 -72 -11 -105 -3 -33 -8 -71 -10 -85 -2 -14 -7 -56 -11 -95 -4 -38 -8
-81 -9 -95 -2 -14 -6 -52 -10 -85 -10 -103 -16 -139 -25 -155 -18 -32 -66 -69
-100 -76 -54 -10 -164 -11 -177 -1 -7 5 -13 6 -13 1 0 -11 -121 -11 -138 0 -7
4 -12 4 -12 -1 0 -10 -102 -9 -118 1 -7 4 -12 3 -12 -2 0 -6 -14 -7 -34 -2
-19 4 -37 5 -40 3 -3 -3 -47 -6 -98 -7 -98 -1 -123 -11 -155 -56 -20 -28 -19
-95 1 -126 36 -54 43 -55 464 -52 l388 3 76 38 c87 42 147 102 183 182 29 63
33 84 50 250 4 33 8 71 10 85 1 14 5 57 9 95 4 39 9 81 11 95 4 31 16 132 20
180 2 19 6 60 9 90 8 71 15 132 21 195 3 28 7 68 10 90 8 59 15 123 20 185 3
30 7 69 10 85 4 28 7 60 20 185 12 116 18 166 21 184 2 10 6 53 9 95 3 42 8
83 11 92 2 9 7 45 9 80 3 35 7 75 10 89 3 13 7 59 10 101 3 42 7 85 9 95 2 11
7 46 10 79 9 78 15 135 21 187 3 24 7 70 10 103 3 33 8 71 10 85 4 27 14 120
21 189 2 24 6 60 8 80 3 20 8 67 12 106 3 38 7 77 9 86 2 9 6 52 10 95 4 43 9
87 11 97 2 10 6 48 9 85 4 37 8 78 10 92 2 14 7 54 10 90 4 36 9 79 11 95 2
17 6 55 9 85 3 30 8 71 10 90 3 19 7 62 10 95 3 33 7 76 10 95 2 19 7 60 10
90 3 30 8 66 10 80 2 14 7 59 10 100 3 41 8 86 10 100 2 14 7 50 10 80 3 30 8
71 10 90 3 19 7 60 10 90 6 68 14 144 21 190 2 19 6 62 9 95 3 33 7 71 10 85
2 14 6 54 10 90 4 36 8 76 10 90 2 14 6 57 10 95 3 39 8 79 10 90 2 11 4 28 4
37 1 14 13 16 84 16 166 0 205 45 184 212 -4 25 -9 74 -12 110 -10 120 -17
205 -20 240 -2 19 -6 67 -10 105 -3 39 -8 93 -10 120 -3 28 -7 76 -10 108 -3
31 -7 83 -10 115 -3 31 -8 89 -10 127 -8 95 -31 182 -61 230 -68 105 -198 175
-325 175 -37 0 -56 4 -56 13 -1 6 -4 30 -7 52 -13 98 -23 173 -30 240 -11 99
-34 162 -89 239 -28 39 -89 95 -104 96 -7 0 -13 4 -13 8 0 6 -50 30 -67 33 -2
0 -18 6 -37 14 -30 13 -303 15 -1963 14 l-1928 0 -67 -23z m156 -218 c3 5 18
8 33 6 39 -5 60 -5 211 -2 72 2 132 -1 132 -5 0 -5 6 -5 13 0 17 10 99 10 115
0 7 -6 12 -6 12 1 0 6 13 7 34 2 19 -4 38 -5 44 -1 6 3 77 5 159 4 172 -3 161
-3 216 -2 23 1 56 1 72 0 17 -1 90 0 163 1 72 2 132 -1 132 -5 0 -5 6 -5 13 0
17 10 99 10 115 0 7 -6 12 -6 12 1 0 6 13 7 34 2 19 -4 37 -5 40 -2 10 9 250
8 264 -1 7 -6 12 -6 12 -1 0 11 101 11 118 0 7 -4 12 -4 12 1 0 10 161 10 178
-1 7 -4 12 -4 12 1 0 10 102 9 118 -1 7 -4 12 -4 12 1 0 10 161 10 178 -1 7
-4 12 -4 12 1 0 10 102 9 118 -1 7 -4 12 -4 12 1 0 10 161 10 178 -1 7 -4 12
-4 12 1 0 10 102 9 118 -1 7 -4 12 -4 12 1 0 4 51 7 112 6 129 -3 124 -3 181
-2 23 1 56 1 72 0 17 -1 90 0 163 1 72 2 132 -1 132 -6 0 -5 6 -4 13 1 10 7
89 10 107 3 3 -1 21 -3 40 -6 19 -2 37 -9 38 -14 2 -6 8 -10 13 -10 30 0 74
-74 84 -140 3 -25 8 -56 10 -70 11 -80 15 -110 20 -153 3 -26 6 -53 8 -60 1
-9 -309 -13 -1468 -17 -1382 -5 -1473 -6 -1498 -23 -73 -48 -67 -161 11 -201
25 -13 251 -15 1653 -16 893 0 1631 -2 1640 -3 28 -5 68 -36 83 -66 14 -25 18
-57 30 -206 2 -22 6 -70 10 -107 7 -74 16 -182 21 -238 2 -19 4 -35 5 -35 0 0
3 -31 5 -70 2 -38 7 -95 10 -125 4 -30 8 -82 10 -115 2 -33 6 -67 10 -76 4
-11 0 -18 -12 -20 -14 -4 -5124 -3 -5171 0 -7 1 -11 4 -9 9 3 4 8 43 12 87 3
44 8 96 10 115 2 19 7 71 10 115 13 161 16 201 30 340 3 28 8 77 10 110 12
163 22 225 35 225 6 0 10 6 10 13 0 7 16 21 37 31 33 16 80 17 521 17 525 0
522 -1 558 54 9 14 18 40 19 58 4 39 -29 102 -59 113 -12 5 -167 11 -346 14
-208 3 -324 9 -323 15 5 34 14 98 18 134 3 22 7 60 10 84 14 124 37 173 98
212 34 22 90 34 98 22 4 -5 9 -5 13 1z m4161 -2056 c-3 -26 -8 -70 -10 -98 -2
-29 -6 -69 -9 -90 -5 -41 -15 -124 -22 -184 -2 -19 -6 -66 -9 -105 -3 -38 -8
-77 -10 -85 -4 -15 -16 -131 -19 -180 l-2 -25 -2242 -3 c-1233 -1 -2242 1
-2243 5 0 5 -2 15 -3 23 -2 8 -6 47 -10 87 -4 40 -9 89 -12 110 -3 21 -7 56
-9 78 -2 22 -6 60 -9 85 -4 25 -8 70 -11 100 -2 30 -6 66 -9 80 -5 26 -16 134
-21 207 l-3 42 2330 -1 2330 0 -7 -46z m-137 -1012 c27 0 32 -3 28 -17 -2 -10
-7 -45 -11 -78 -3 -33 -8 -71 -10 -85 -2 -14 -6 -50 -9 -80 -3 -30 -8 -80 -12
-110 -3 -30 -7 -71 -9 -90 -5 -55 -15 -142 -20 -180 -2 -19 -7 -62 -10 -95 -3
-33 -8 -73 -10 -90 -3 -16 -7 -55 -10 -85 -2 -30 -7 -75 -10 -100 -3 -25 -7
-67 -10 -95 -2 -27 -7 -66 -9 -85 -3 -19 -8 -62 -12 -95 -3 -33 -8 -73 -9 -90
-5 -38 -12 -113 -20 -190 -3 -33 -8 -73 -10 -90 -2 -16 -6 -50 -9 -75 -2 -25
-7 -67 -10 -95 -3 -27 -8 -74 -11 -102 -3 -29 -7 -68 -9 -86 -3 -19 -7 -63
-11 -98 -3 -35 -8 -77 -10 -94 -2 -16 -6 -59 -10 -95 -3 -36 -8 -76 -10 -90
-3 -14 -8 -52 -11 -85 -2 -33 -6 -73 -8 -90 -4 -36 -17 -149 -22 -190 -1 -16
-6 -59 -9 -95 -3 -36 -8 -78 -10 -95 -2 -16 -7 -55 -10 -85 -3 -30 -8 -64 -10
-75 -2 -11 -4 -32 -4 -46 l-1 -26 -1870 0 c-1725 -1 -1870 1 -1871 16 -1 18
-3 39 -13 121 -3 30 -8 78 -11 105 -9 94 -14 134 -30 270 -3 22 -8 63 -10 90
-3 28 -8 68 -10 90 -3 22 -7 65 -10 95 -2 30 -7 71 -10 90 -3 19 -8 62 -11 95
-3 33 -7 74 -9 90 -2 17 -6 55 -9 85 -3 30 -7 73 -10 95 -3 22 -8 68 -11 102
-3 34 -8 71 -10 82 -3 19 -14 118 -20 201 -2 19 -4 35 -5 35 -1 0 -3 18 -5 40
-4 51 -15 152 -21 187 -2 15 -6 53 -9 85 -3 32 -7 74 -9 93 -6 44 -17 149 -21
203 -2 23 -5 42 -5 42 -1 0 -3 16 -5 35 -7 74 -16 156 -20 185 -7 57 -16 140
-20 192 -3 29 -7 66 -10 83 -3 17 -8 58 -11 93 -8 90 -11 125 -19 187 -3 29
-7 56 -7 60 -2 20 5 29 25 32 16 2 4176 1 4375 -2z"/>
<path d="M4046 5362 c-2 -1 -16 -5 -32 -8 -59 -9 -170 -47 -229 -76 -133 -67
-188 -114 -385 -327 -58 -63 -118 -129 -135 -146 -110 -119 -146 -161 -173
-201 -22 -33 -109 -218 -110 -234 0 -8 -6 -33 -11 -55 -60 -224 -6 -508 133
-703 50 -70 156 -174 223 -220 83 -56 198 -110 271 -126 13 -3 32 -8 42 -11
70 -22 272 -23 368 0 12 3 32 7 43 10 82 18 206 77 294 139 34 25 115 101 181
171 65 70 137 146 159 169 119 126 194 213 223 259 43 66 84 147 76 147 -4 0
-2 6 4 13 9 11 39 104 47 146 37 198 17 368 -65 548 -62 134 -147 241 -263
330 -58 45 -177 112 -227 127 -31 10 -39 13 -45 16 -7 4 -16 6 -60 15 -22 4
-49 10 -60 13 -22 5 -264 10 -269 4z m267 -246 c39 -9 125 -42 169 -64 33 -17
35 -20 20 -34 -10 -8 -30 -31 -47 -50 -16 -20 -77 -87 -135 -148 -130 -140
-128 -136 -126 -187 2 -52 30 -93 76 -108 77 -26 92 -14 372 292 l47 53 31
-45 c17 -25 28 -45 25 -45 -3 0 1 -10 9 -22 9 -12 16 -30 16 -40 0 -10 5 -18
12 -18 6 0 9 -3 5 -6 -3 -3 -2 -17 3 -30 5 -13 12 -45 16 -71 25 -185 -12
-342 -115 -484 -32 -45 -313 -350 -411 -447 -192 -189 -458 -238 -716 -131
-41 17 -74 35 -74 40 0 4 12 21 28 37 23 25 166 179 256 276 15 17 74 80 130
139 146 156 157 179 125 259 -13 32 -64 58 -114 58 -33 0 -45 -9 -118 -84 -45
-46 -120 -125 -167 -176 -76 -83 -157 -169 -275 -296 -23 -25 -45 -40 -51 -36
-30 19 -95 172 -111 259 -8 48 -8 178 0 218 30 147 81 243 197 365 19 20 82
88 140 151 249 269 326 328 482 368 73 19 234 23 301 7z"/>
<path d="M7545 4340 c-70 -16 -155 -50 -235 -95 -47 -27 -152 -140 -185 -200
-34 -62 -59 -138 -70 -215 -8 -55 -9 -950 -1 -1004 9 -60 35 -145 62 -198 23
-45 109 -159 125 -166 4 -2 25 -17 46 -34 105 -84 261 -129 443 -130 348 0
602 195 657 503 8 51 12 524 4 538 -6 9 -92 12 -324 12 -174 1 -321 -2 -327
-6 -15 -9 -13 -162 3 -168 6 -2 108 -4 226 -4 138 0 215 -4 220 -11 11 -18 3
-321 -10 -375 -36 -154 -158 -265 -329 -301 -41 -8 -67 -9 -71 -3 -4 6 -9 6
-12 -1 -8 -12 -113 -5 -196 14 -59 14 -139 62 -194 116 -63 62 -99 132 -116
219 -12 66 -12 914 0 984 14 86 17 96 45 143 38 65 139 162 169 162 8 0 15 4
15 8 0 32 250 62 345 42 74 -16 82 -18 133 -44 139 -70 220 -211 226 -391 2
-48 8 -52 108 -51 l93 1 -1 70 c-1 111 -13 167 -53 257 -73 160 -222 274 -431
329 -75 19 -273 19 -365 -1z"/>
<path d="M9358 4349 c-143 -22 -273 -85 -362 -174 -34 -33 -68 -69 -76 -80
-29 -39 -75 -152 -97 -236 -3 -13 -7 -242 -8 -508 -2 -549 2 -586 65 -714 22
-43 45 -83 52 -91 7 -7 29 -32 48 -54 19 -23 41 -42 48 -42 6 0 12 -4 12 -9 0
-8 97 -72 115 -75 6 -1 26 -9 45 -18 55 -27 187 -50 280 -50 85 0 176 8 190
17 4 3 25 7 46 11 56 8 170 66 232 117 84 70 172 201 186 279 2 15 7 31 9 35
18 29 32 558 16 584 -8 14 -636 14 -653 -1 -11 -8 -13 -56 -7 -151 1 -14 26
-16 219 -17 119 0 223 -1 229 -1 21 -2 11 -362 -12 -426 -43 -123 -163 -224
-303 -256 -80 -18 -262 -12 -297 9 -5 4 -18 8 -27 9 -25 4 -118 55 -118 65 0
4 -4 8 -10 8 -13 0 -42 29 -84 85 -33 43 -64 117 -72 173 -7 48 -6 925 1 971
15 103 53 178 125 248 45 43 128 90 173 99 15 2 38 9 51 14 24 9 212 7 246 -2
124 -34 209 -91 272 -183 22 -33 56 -109 58 -130 0 -3 0 -6 1 -7 1 -2 3 -36 5
-77 2 -40 6 -76 9 -79 3 -3 46 -7 96 -8 102 -2 107 1 104 76 -7 147 -47 262
-128 365 -86 109 -208 179 -382 220 -43 10 -241 13 -297 4z"/>
</g>
</svg>
